<?xml version="1.0" encoding="UTF-8"?>
<!DOCTYPE svg PUBLIC "-//W3C//DTD SVG 1.1//EN" "http://www.w3.org/Graphics/SVG/1.1/DTD/svg11.dtd">
<svg version="1.1" xmlns="http://www.w3.org/2000/svg" xmlns:xlink="http://www.w3.org/1999/xlink" x="0px" y="0px" width="1249" height="1249" viewBox="0, 0, 1249, 1249">
  <g id="Image">
    <path d="M649.24,358.839 C660.352,370.762 665.888,394.009 682.833,396.833 C691.331,398.25 707.364,350.167 734.833,350.167 C762.2,350.167 752.108,394.533 758.833,403.5 C762.65,408.589 787.643,399.291 794.833,402.167 C803.649,405.693 802.586,418.868 810.833,422.167 C817.753,424.935 830.323,416.748 838.833,418.167 C847.06,419.538 847.61,427.759 854.833,430.167 C859.527,431.731 865.926,429.349 870.833,430.167 C885.046,432.535 889.223,447.223 897.5,455.5 C912.289,470.289 939.348,466.681 954.833,482.167 C966.015,493.348 957.5,550.8 957.5,567.5 C957.5,577.206 962.758,581.622 968.167,588.833 C997.633,628.121 1043.078,590.874 1078.833,596.833 C1100.546,600.452 1089.462,626.054 1093.5,638.167 C1093.74,638.886 1112.558,638.362 1114.833,639.5 C1127.321,645.744 1134.88,662.229 1142.833,672.833 C1165.954,703.661 1107.504,714.146 1104.167,734.167 C1102.354,745.041 1120.967,749.098 1116.167,763.5 C1107.012,790.964 1039.351,769.853 1029.5,782.167 C1015.183,800.063 1011.371,828.295 988.167,851.5 C981.003,858.664 966.913,861.696 957.5,864.833 C858.071,897.976 786.056,853.185 700.167,867.5 C679.542,870.937 667.47,881.182 649.5,890.167 C608.802,910.516 549.886,938.222 502.833,931.5 C473.082,927.25 414.738,876.595 376.167,870.167 C346.155,865.165 330.721,904.777 293.5,886.167 C289.412,884.123 280.68,884.014 277.5,880.833 C267.156,870.489 273.439,848.424 264.167,836.833 C253.263,823.204 226.913,836.602 221.5,822.167 C216.286,808.264 218.958,785.927 206.833,776.833 C194.204,767.361 125.562,768.493 112.167,746.167 C87.972,705.842 122.621,705.469 132.167,676.833 C137.159,661.855 126.712,638.409 133.5,624.833 C137.541,616.752 147.437,625.211 149.5,612.833 C151.247,602.351 141.052,585.282 149.5,576.833 C159.724,566.609 183.256,574.904 194.833,576.833 C222.531,581.45 207.489,552.833 226.833,552.833 C242.755,552.833 284.751,571.533 294.833,567.5 C313.151,560.173 313.515,534.424 329.5,524.833 C342.058,517.299 357.435,525.533 369.5,519.5 C375.711,516.394 382.431,509.236 386.833,504.833 C394.062,497.605 405.07,493.478 410.833,484.833 C423.916,465.21 420.224,439.386 430.833,418.167 C442.967,393.899 463.417,405.583 477.5,391.5 C487.132,381.868 483.313,363.625 497.5,354.167 C534.673,329.385 561.88,360.008 598.833,366.167 C617.441,369.268 630.904,353.301 649.5,359.5" fill="#B6EAEC"/>
    <path d="M286.964,813.172 C313.562,812.862 306.404,854.095 330.833,858.167 C359.654,862.97 417.531,840.399 442.833,848.833 C470.31,857.992 483.664,891.638 514.833,896.833 C522.692,898.143 530.981,896.858 538.833,898.167 C548.498,899.777 560.904,901.155 570.833,899.5 C624.012,890.637 669.032,856.467 722.833,847.5 C752.624,842.535 840.698,869.856 886.833,862.167 C926.015,855.636 982.141,812.686 1012.167,790.167 C1025.641,780.061 1037.713,765.954 1049.5,754.167 C1064.62,739.047 1104.577,743.703 1113.5,690.167 C1114.266,685.567 1116.428,678.951 1114.833,674.167 C1111.144,663.098 1100.783,654.906 1093.5,646.167 C1087.64,639.134 1081.99,631.745 1073.5,627.5 C1048.155,614.827 966.18,630.167 933.5,630.167 C927.134,630.167 915.647,632.216 909.5,630.167 C870.817,617.272 931.818,537.643 905.5,498.167 C870.716,445.991 794.437,470.808 776.167,463.5 C748.603,452.475 762.389,394.018 721.5,400.833 C688.835,406.277 666.429,454.921 628.167,442.167 C594.305,430.879 602.075,375.182 536.167,386.167 C511.537,390.272 451.075,438.049 446.833,463.5 C444.714,476.217 452.268,491.195 448.167,503.5 C445.291,512.128 432.689,509.932 429.5,519.5 C424.013,535.96 432.154,551.509 416.167,563.5 C403.766,572.8 388.283,561.442 376.167,567.5 C359.209,575.979 358.684,593.303 337.5,596.833 C312.332,601.028 286.222,581.806 261.5,594.167 C242.936,603.449 245.274,626.987 236.167,642.167 C225.626,659.734 201.901,667.099 188.167,680.833 C183.453,685.547 179.866,695.968 178.833,702.167 C172.222,741.836 220.51,750.339 246.833,763.5 C270.126,775.146 270.235,818.167 298.833,818.167" fill="#B8F8F8" fill-opacity="0.67"/>
    <path d="M459.927,775.573 C475.959,774.877 492.698,776.352 506.833,784.833 C522.209,794.059 537.241,806.037 553.5,814.167 C579.83,827.332 639.098,822.541 664.167,807.5 C696.88,787.872 719.544,754.952 762.833,762.167 C786.805,766.162 816.84,794.946 852.167,800.833 C910.146,810.497 1072.308,751.987 1082.833,688.833 C1084.82,676.911 1074.68,673.227 1065.5,670.167 C1013.472,652.824 952.507,673.36 901.5,651.5 C827.684,619.865 895.701,538.724 880.167,512.833 C854.361,469.824 792.046,500.813 752.167,494.167 C726.25,489.847 747.104,442.862 728.167,431.5 C717.726,425.236 673.205,462.209 654.833,464.833 C604.811,471.979 604.975,422.921 537.5,434.167 C493.033,441.578 454.282,562.442 417.5,580.833 C363.375,607.896 152.478,644.033 166.833,730.167 C175.327,781.129 262.974,727.262 290.833,732.833 C314.2,737.507 321.764,771.659 341.5,783.5 C361.726,795.635 444.375,774.167 472.167,774.167" fill="#E2FEFC" fill-opacity="0.553"/>
    <path d="M958.792,729.828 C938.759,724.381 907.455,707.849 904.167,684.833 C902.027,669.856 914.319,660.384 922.833,650.167 C932.832,638.168 937.659,621.616 950.833,612.833 C964.649,603.623 1025.586,622.338 1037.5,646.167 C1041.308,653.783 1044.901,670.276 1040.167,678.167 C1036.579,684.145 1026.338,683.995 1021.5,688.833 C1006.645,703.688 981.854,743.736 953.5,724.833" fill="#FFFFFF" fill-opacity="0.91"/>
    <path d="M682.995,584.599 C699.4,575.743 760.96,556.547 752.167,530.167 C745.052,508.824 716.332,532.666 705.5,526.167 C683.852,513.178 715.363,510.922 662.833,502.167 C630.527,496.782 609.896,525.41 588.167,518.167 C579.631,515.321 582.833,501.028 582.833,494.167 C582.833,450.882 602.046,410.167 532.167,410.167 C523.77,410.167 515.615,413.109 508.167,416.833 C478.767,431.533 456.166,479.498 461.5,511.5 C463.958,526.249 480.339,532.533 482.833,547.5 C486.522,569.633 435.03,584.09 446.833,619.5 C452.535,636.604 485.557,630.195 498.833,636.833 C515.704,645.269 517.013,665.679 529.5,678.167 C547.168,695.835 618.509,696.833 644.167,696.833 C671.408,696.833 710.796,676.611 705.5,644.833 C705.445,644.501 654.791,595.514 694.833,582.167" fill="#FFFFFF" fill-opacity="0.91"/>
    <path d="M269.031,669.349 C290.192,671.602 322.97,674.26 341.953,662.87 C358.62,652.869 377.946,646.346 389.953,629.536 C406.971,605.712 403.763,565.616 371.286,560.203 C341.818,555.292 347.033,602.954 323.286,610.87 C311.637,614.753 301.109,598.448 291.286,593.536 C270.892,583.339 233.486,579.683 212.62,592.203 C178.325,612.78 186.286,665.592 225.953,672.203 C250.421,676.281 275.228,670.87 299.286,670.87" fill="#FFFFFF" fill-opacity="0.91"/>
  </g>
  <defs/>
</svg>
